# xmcd CD database file
#
# Track frame offsets:
#	150
#	16538
#	30844
#	45913
#	60141
#	72529
#	85398
#	102785
#	117063
#	132735
#	147591
#	159258
#	170220
#	183398
#	196949
#	209335
#	223242
#	236411
#	249025
#	259972
#	270743
#	282710
#	293752
#	306853
#
# Disc length: 4241 seconds
#
# Revision: 0
# Processed by: cddbd v1.5.2PL0 Copyright (c) Steve Scherf et al.
# Submitted via: CDex 1.51
#
DISCID=5d108f18
DTITLE=Rockin' Roots Tracks - Boogie woogie
DYEAR=2003
DGENRE=Jazz
TTITLE0=Ammons - Boogie woogie stamp
TTITLE1=Cow cow davenport - Cow cow blues
TTITLE2=Pinetop Smith - Jump steady blues
TTITLE3=Jimmy Yancey - Yancey limited
TTITLE4=Jimmy Yancey - Five o'clock blues
TTITLE5=Meade Lux Lewis - Honky tonk train blues
TTITLE6=Ammons - Suitcase blues
TTITLE7=Lofton - The fives
TTITLE8=Montana Taylor - Indiana avenue stomp
TTITLE9=Speckled Red - St Louis stomp
TTITLE10=Montgomery - Farish street jive
TTITLE11=Cleo Brown - (Pinetop's) Boogie woogie
TTITLE12=Pete Johnson - Basement boogie
TTITLE13=Pete Johnson - Death ray boogie
TTITLE14=Pete Johnson - Boogie woogie man
TTITLE15=Hazel Scott - A rainy night in G
TTITLE16=Big Maceo - Chicago breakdown
TTITLE17=Memphis Slim - pacemaker boogie
TTITLE18=Piano Red - Red's boogie
TTITLE19=Amos Milburn - Amos boogie
TTITLE20=Cecil Gant - Screwy boogie
TTITLE21=Camille Howard - Fire-ball boogie
TTITLE22=Sammy Price - Eiffel tower
TTITLE23=Ammons - Swanee river boogie
EXTD=YEAR: 2003
EXTT0=
EXTT1=
EXTT2=
EXTT3=
EXTT4=
EXTT5=
EXTT6=
EXTT7=
EXTT8=
EXTT9=
EXTT10=
EXTT11=
EXTT12=
EXTT13=
EXTT14=
EXTT15=
EXTT16=
EXTT17=
EXTT18=
EXTT19=
EXTT20=
EXTT21=
EXTT22=
EXTT23=
PLAYORDER=
